<svg xmlns="http://www.w3.org/2000/svg" viewBox="0 0 640 640">
    <path fill="rgb(184, 171, 151)"
        d="M128 96C92.7 96 64 124.7 64 160L64 400L128 400L128 160L512 160L512 400L576 400L576 160C576 124.7 547.3 96 512 96L128 96zM19.2 448C8.6 448 0 456.6 0 467.2C0 509.6 34.4 544 76.8 544L563.2 544C605.6 544 640 509.6 640 467.2C640 456.6 631.4 448 620.8 448L19.2 448z" />

    <path fill="rgb(184, 171, 151)" transform="scale(0.5) translate(300, 290)"
        d="M224.2 89C216.3 70.1 195.7 60.1 176.1 65.4L170.6 66.9C106 84.5 50.8 147.1 66.9 223.3C104 398.3 241.7 536 416.7 573.1C493 589.3 555.5 534 573.1 469.4L574.6 463.9C580 444.2 569.9 423.6 551.1 415.8L453.8 375.3C437.3 368.4 418.2 373.2 406.8 387.1L368.2 434.3C297.9 399.4 241.3 341 208.8 269.3L253 233.3C266.9 222 271.6 202.9 264.8 186.3L224.2 89z" />
</svg>